<?xml version="1.0" encoding="utf-8"?>
<!-- Generator: Adobe Illustrator 22.0.0, SVG Export Plug-In . SVG Version: 6.00 Build 0)  -->
<svg version="1.1" id="Layer_1" xmlns="http://www.w3.org/2000/svg" xmlns:xlink="http://www.w3.org/1999/xlink" x="0px" y="0px"
	 viewBox="0 0 226 216" style="enable-background:new 0 0 226 216;" xml:space="preserve">
<g id="_x23_000000ff">
	<path d="M0,0h0.2c0,0.1-0.2,0.2-0.2,0.2V0z"/>
	<path d="M98.1,31.3c9.6-5.9,20.6-9.6,31.9-9.8c9.6-0.3,19.4,0.7,28.3,4.1c17.7,6.7,31.5,21.7,38.9,38.9c5.6,14.1,5.8,30,2.4,44.6
		c-3.3,11.7-9.8,22.5-18.5,31c-9.9,10.2-23.1,17.4-37.3,19.2c-14.2,1.8-29.4,0-41.9-7.3c-10.5-5.8-19.4-14.2-25.6-24.4
		c-3-4.5-4.7-9.9-8.6-13.8c-0.6,4-1,8.1-0.9,12.2c0.1,9,0,18,0,27c0.1,5.3,0.5,10.5,0.3,15.8c1.9,2,4,3.9,6.2,5.7
		c-1.3-0.1-2.7-0.2-4.1-0.3c-0.5,0.9-0.9,1.9-1.3,2.9c-0.2-1.7-0.4-3.3-0.7-5c-0.9,1.4-1.8,2.8-2.7,4.2c-0.1-1.4-0.2-2.7-0.4-4.1
		l1.1,0.2c0.5-3.8,1.1-7.6,0.9-11.5c-0.4-15.3,0.3-30.5-0.5-45.8c-1.6,0-3.1-0.1-4.7-0.1c-0.1,7.3,0,14.6-0.1,21.9
		c0.2,10.3-0.8,20.7-0.3,31c0.2,2.9,1.2,5.7,2,8.4c-1-0.8-2-1.6-3-2.4c-0.5,1.1-1,2.3-1.5,3.4c-0.4-1.3-0.7-2.7-1.1-4
		c-0.9,0.7-1.8,1.5-2.8,2.2c-0.3-0.4-0.9-1.3-1.2-1.8c1.9-1,3.7-1.9,5.6-2.8c0.6-6,0.5-12,0.3-18c-0.1-12.6,0.1-25.3-0.1-37.9
		c-3.2,1.1-6.7,2.2-9.2,4.7c-3.4,3.3-5.5,7.8-6.6,12.4c-3.5,16.6-1.6,33.7,1.2,50.3c0.6,3.1,1.1,6.3,0.9,9.4
		c-1.2-2.6-2.1-5.4-2.5-8.2c-1.4-8.8-3.1-17.7-2.5-26.6c0.5-7-0.8-14,0.4-20.9c0.8-5.3,2.6-10.5,5.7-14.9c3-4.2,7.7-7.3,12.9-7.7
		c3.3-0.3,6.6-0.1,9.9-0.2c-1.7-6.7-3.5-13.5-3.4-20.4c-0.2-15.5,3.9-31.5,13.6-43.8C84.7,42.4,90.7,35.9,98.1,31.3 M98.2,33.2
		c-8.7,5.5-15.6,13.5-21,22.1c-5.1,8-8.1,17.2-9.1,26.5c-1.8,13-0.1,26.6,5.6,38.5c5,10.3,13.2,18.8,22.2,25.8
		c6.7,5.2,14.7,8.7,23,10.6c5.6,1.3,11.4,1.2,17.2,1.2c16,0.3,31.8-6.6,43-17.9c7.7-7.5,14.4-16.5,17.5-26.9
		c2.1-6.9,3.8-14,3.8-21.2c-0.3-10.5-1.5-21.1-6.2-30.6c-1,2.8-1.6,6-3.8,8.1c-3.5,3.2-8.5,4.3-13.2,4c-6.9,0-13.8-3-18.5-8
		c-3.2-3.4-2.8-8.6-1.9-12.8c3.4-5.5,10.5-6.2,16.3-5.9c5.6,0.1,10.6,3,15.6,5.3c-2.3-3.2-4.7-6.6-8.3-8.3
		c-6.5-3.2-13.2-6.2-19.8-9.3c0.1-0.7,0.2-1.3,0.4-2c6,3.1,12,6.3,18.3,8.8c-11.4-11.8-27.8-18.4-44.2-18
		C122.1,22.6,109,26,98.2,33.2 M161.9,50c-2.2,1.1-3.4,3.4-4.7,5.3c6.2,0.7,12.4,1.6,18.5,3.1c0.8-1.6,1.6-3.1,2.5-4.7
		c1.3,0,2.6-0.1,4-0.2c0.7,2.5,1.3,5,1.8,7.5c2.8,1.3,5.6,2.7,8.4,4c-0.4-2.7-0.3-5.8-2.2-8c-3.7-5.1-10-7.7-16.1-8.5
		C170,48.1,165.6,48,161.9,50 M156.9,57.4c1,3,2,6.1,4.5,8.2c5.8,5,14,7.2,21.5,5.7c3.1-0.7,5.8-2.6,8.3-4.4
		c-6.8-4.5-14.8-6.7-22.7-8.5C164.7,57.5,160.8,57.3,156.9,57.4z"/>
	<path d="M125.2,31.2c3.4-1.3,6.9-2.5,10.5-3.1c-1.9,1.3-4,2.4-6.2,3.2C117.3,35.7,105.1,40,93,44.7c-0.6-0.2-1.9-0.6-2.5-0.8
		C102,39.5,113.6,35.5,125.2,31.2z"/>
	<path d="M112.5,42c8.6-1,18-0.8,25.3,4.2c3.7,2.5,7.4,6.6,6.4,11.4c-1.2,4.7-5.3,8-9.6,9.9c-11.1,5-25.2,4.4-35-3.2
		c-4-3-5.7-9.1-2.7-13.4C100.5,45.8,106.6,43.1,112.5,42 M99.4,50.4c-2.1,2.2-2,5.3-2.2,8.1c7.6-1.8,15.2-2.9,22.9-3.8
		c0.1-1.9,0.2-3.8,0.4-5.7c1.8,0,3.7,0,5.5,0c0.1,1.9,0.2,3.9,0.2,5.8c5.1-0.1,10.3-0.4,15.4,0.6c-6.4,0.7-13-0.1-19.4,0.9
		c-8.1,1.1-16.2,1.9-24.1,4c6.4,7.8,17.6,10.2,27.2,8.4c5.5-1,11.4-2.8,15.2-7.1c2.4-3.1,3-8.2,0-11.1c-5.4-5.9-13.9-7.7-21.6-7.6
		C112,43.5,104.2,44.8,99.4,50.4z"/>
	<path d="M154.1,63.6c2.1,3.2,4,6.5,5.8,9.9c-1.4-1-3.1-1.7-4.1-3.1C154.8,68.2,154.6,65.9,154.1,63.6z"/>
	<path d="M133.1,76.5c3.7-3.1,6.4-7.1,9.2-11c-0.8,2.6-1.5,5.4-3.2,7.6C137.6,75,135.1,75.6,133.1,76.5z"/>
	<path d="M179.4,80.7c0.1-0.5,0.4-1.6,0.5-2.1c1.2,1.6,2.6,3.1,3.3,4.9c0.4,2.2,0.1,4.4,0,6.6c-0.3-0.4-0.9-1.2-1.2-1.6
		C181.6,85.7,181,83,179.4,80.7z"/>
	<path d="M150.3,88.3c6.5-3.4,13.7-5.8,21.2-5.9c0.6,2.1,1.4,4.2,1.1,6.4c-0.6,3.8-2.9,7-5.1,10c1.4-4.8,3.6-9.4,3.6-14.5
		c-8.8-0.8-16.6,3.7-24.2,7.4c-5.5,2.6-10.5,6.4-16.4,8C136.3,94.8,143.5,91.9,150.3,88.3z"/>
	<path d="M119,92c0.8,0,2.3,0,3,0c0,1.7,0,3.4,0,5.1c-0.8,0-2.3,0-3,0C119,95.4,119,93.7,119,92z"/>
</g>
</svg>
